<svg height="425" viewBox="0 0 1416 425" width="1416" xmlns="http://www.w3.org/2000/svg"><g fill="#151515"><path d="m94 286c0 8.333333 1.5 16.083333 4.5 23.25s7.083333 13.416667 12.25 18.75 11.333333 9.5 18.5 12.5 14.916667 4.5 23.25 4.5c8 0 15.583333-1.5 22.75-4.5s13.333333-7.166667 18.5-12.5 9.333333-11.5 12.5-18.5 4.75-14.5 4.75-22.5-1.583333-15.583333-4.75-22.75-7.333333-13.416667-12.5-18.75-11.333333-9.5-18.5-12.5-14.75-4.5-22.75-4.5c-8.333333 0-16.083333 1.5-23.25 4.5s-13.333333 7.166667-18.5 12.5-9.25 11.416667-12.25 18.25-4.5 14.25-4.5 22.25zm114-127.5h91v256.5h-91v-28.5c-19.333333 24.333333-45.5 36.5-78.5 36.5-18.666667 0-35.8333333-3.416667-51.5-10.25s-29.3333333-16.416667-41-28.75-20.75-26.833333-27.25-43.5-9.75-34.833333-9.75-54.5c0-18.333333 3.16666667-35.75 9.5-52.25 6.3333333-16.5 15.1666667-30.916667 26.5-43.25s24.8333333-22.083333 40.5-29.25 33-10.75 52-10.75c32 0 58.5 11.166667 79.5 33.5z"/><path d="m451 0v415h-90.5v-415z"/><path d="m603.5 158.5v256.5h-90.5v-256.5zm-96.5-98.5c0-7 1.333333-13.5833333 4-19.75s6.333333-11.5833333 11-16.25 10.083333-8.3333333 16.25-11 12.75-4 19.75-4 13.583333 1.3333333 19.75 4 11.583333 6.3333333 16.25 11 8.333333 10.0833333 11 16.25 4 12.75 4 19.75-1.333333 13.5833333-4 19.75-6.333333 11.5833333-11 16.25c-4.666667 4.666667-10.083333 8.333333-16.25 11s-12.75 4-19.75 4-13.583333-1.333333-19.75-4-11.583333-6.333333-16.25-11c-4.666667-4.6666667-8.333333-10.0833333-11-16.25s-4-12.75-4-19.75z"/><path d="m835.5 224.5c-16.666667-8.666667-33-13-49-13-8.333333 0-15.083333 1.666667-20.25 5s-7.75 7.833333-7.75 13.5c0 3 .416667 5.416667 1.25 7.25s2.666667 3.583333 5.5 5.25 7 3.166667 12.5 4.5 12.75 3 21.75 5c25 5 43.666667 13.916667 56 26.75s18.5 29.25 18.5 49.25c0 15-3 28.5-9 40.5s-14.333333 22.083333-25 30.25-23.5 14.5-38.5 19-31.5 6.75-49.5 6.75c-34.666667 0-68.833333-9.833333-102.5-29.5l33-64c25.333333 17.333333 49.333333 26 72 26 8.333333 0 15.166667-1.833333 20.5-5.5s8-8.333333 8-14c0-3.333333-.416667-6.083333-1.25-8.25s-2.583333-4.166667-5.25-6-6.583333-3.5-11.75-5-11.916667-3.083333-20.25-4.75c-28-5.666667-47.583333-14.083333-58.75-25.25s-16.75-26.583333-16.75-46.25c0-14.333333 2.666667-27.25 8-38.75s13-21.25 23-29.25 22.083333-14.166667 36.25-18.5 29.916667-6.5 47.25-6.5c28.333333 0 55.833333 5.5 82.5 16.5z"/><path d="m1028 234v181h-90.5v-181h-30v-75.5h30v-77h90.5v77h51.5v75.5z"/><path d="m1203.5 285.5c0 8.666667 1.58333 16.583333 4.75 23.75s7.33333 13.416667 12.5 18.75 11.33333 9.5 18.5 12.5 14.75 4.5 22.75 4.5 15.58333-1.5 22.75-4.5 13.33333-7.166667 18.5-12.5 9.33333-11.583333 12.5-18.75 4.75-14.916667 4.75-23.25c0-8-1.58333-15.583333-4.75-22.75s-7.33333-13.416667-12.5-18.75-11.33333-9.5-18.5-12.5-14.75-4.5-22.75-4.5-15.58333 1.5-22.75 4.5-13.33333 7.166667-18.5 12.5-9.33333 11.5-12.5 18.5-4.75 14.5-4.75 22.5zm-95.5-1c0-19 3.83333-36.75 11.5-53.25s18.33333-30.833333 32-43 29.91667-21.75 48.75-28.75 39.41667-10.5 61.75-10.5c22 0 42.41667 3.416667 61.25 10.25s35.16667 16.333333 49 28.5 24.58333 26.666667 32.25 43.5 11.5 35.416667 11.5 55.75-3.91667 38.916667-11.75 55.75-18.58333 31.333333-32.25 43.5-30.08333 21.583333-49.25 28.25-39.91667 10-62.25 10c-22 0-42.33333-3.333333-61-10s-34.75-16.166667-48.25-28.5-24.08333-27.083333-31.75-44.25-11.5-36.25-11.5-57.25z"/></g></svg>